<svg xmlns="http://www.w3.org/2000/svg" version="1.1" xmlns:xlink="http://www.w3.org/1999/xlink" xmlns:svgjs="http://svgjs.dev/svgjs" width="1000" height="1000" viewBox="0 0 1000 1000"><rect width="1000" height="1000" fill="#ffffff"></rect><g transform="matrix(0.7,0,0,0.7,150.36372589106264,150.36372589106253)"><svg viewBox="0 0 340 340" data-background-color="#ffffff" preserveAspectRatio="xMidYMid meet" height="1000" width="1000" xmlns="http://www.w3.org/2000/svg" xmlns:xlink="http://www.w3.org/1999/xlink"><g id="tight-bounds" transform="matrix(1,0,0,1,-0.17666686137323495,-0.17666686137323495)"><svg viewBox="0 0 340.35333372274647 340.35333372274647" height="340.35333372274647" width="340.35333372274647"><g><svg></svg></g><g><svg viewBox="0 0 340.35333372274647 340.35333372274647" height="340.35333372274647" width="340.35333372274647"><g><path d="M0 170.177c0-93.986 76.191-170.177 170.177-170.177 93.986 0 170.177 76.191 170.176 170.177 0 93.986-76.191 170.177-170.176 170.176-93.986 0-170.177-76.191-170.177-170.176zM170.177 323.078c84.445 0 152.902-68.456 152.901-152.901 0-84.445-68.456-152.902-152.901-152.902-84.445 0-152.902 68.456-152.902 152.902 0 84.445 68.456 152.902 152.902 152.901z" data-fill-palette-color="tertiary" fill="#ff4136" stroke="transparent"></path><ellipse rx="163.3696001869183" ry="163.3696001869183" cx="170.17666686137323" cy="170.17666686137323" fill="#ff4136" stroke="transparent" stroke-width="0" fill-opacity="1" data-fill-palette-color="tertiary"></ellipse></g><g transform="matrix(1,0,0,1,64.48070209453374,74.39744624779468)"><svg viewBox="0 0 211.391929533679 191.55844122715712" height="191.55844122715712" width="211.391929533679"><g><svg viewBox="0 0 211.391929533679 191.55844122715712" height="191.55844122715712" width="211.391929533679"><g><svg viewBox="0 0 211.391929533679 191.55844122715712" height="191.55844122715712" width="211.391929533679"><g><svg viewBox="0 0 211.391929533679 191.55844122715712" height="191.55844122715712" width="211.391929533679"><g><svg viewBox="0 0 211.391929533679 191.55844122715712" height="191.55844122715712" width="211.391929533679"><g><svg viewBox="0 0 211.391929533679 191.55844122715712" height="191.55844122715712" width="211.391929533679"><g transform="matrix(1,0,0,1,0,0)"><svg width="211.391929533679" viewBox="-1.2999999523162842 -40.54999923706055 63.95000076293945 57.94999694824219" height="191.55844122715712" data-palette-color="#ffffff"><path d="M48.2-35.25L48.2-35.25Q53.5-32.1 53.5-27.65L53.5-27.65Q53.5-24.15 49.6-20.15L49.6-20.15Q47.35-17.8 44.28-16.1 41.2-14.4 38.2-13.65L38.2-13.65Q33-12.4 28.8-12.4L28.8-12.4Q27.9-12.4 27-12.45L27-12.45Q23.35-7.1 19.5-3.35L19.5-3.35Q13.85 1.95 7.05 1.95L7.05 1.95Q0.55 1.95-0.95-1.6L-0.95-1.6Q-1.3-2.45-1.3-3.58-1.3-4.7-0.15-6L-0.15-6Q1.65-8.05 4.9-8.05L4.9-8.05Q7-8.05 9.3-7.3L9.3-7.3Q10.15-7 9.9-6.65L9.9-6.65Q9.7-6.45 8.6-6.85 7.5-7.25 5.88-7.25 4.25-7.25 3.03-6.03 1.8-4.8 1.8-3.4L1.8-3.4Q1.8-2.85 2-2.3L2-2.3Q2.8 0.4 6.55 0.4L6.55 0.4Q12.15 0.4 17.55-4.8L17.55-4.8Q21.4-8.55 26.2-18.3L26.2-18.3Q28.05-21.95 30.8-26.43 33.55-30.9 36.4-34.1L36.4-34.1Q36.75-34.45 37.3-35L37.3-35Q38.35-36.2 39.05-36.9L39.05-36.9Q35.45-37.4 31.35-37.4 27.25-37.4 23.6-36.73 19.95-36.05 17.25-35.13 14.55-34.2 11.78-32.73 9-31.25 7.1-29L7.1-29Q4.6-26.15 4.6-23.05L4.6-23.05Q4.6-21.15 5.95-19.5L5.95-19.5Q7.4-17.75 9.68-17.75 11.95-17.75 14.08-19.5 16.2-21.25 17.1-23.8L17.1-23.8Q17.15-24.15 17.32-24.28 17.5-24.4 17.65-24.25 17.8-24.1 17.8-23.75L17.8-23.75Q17.75-20.5 15.28-18.63 12.8-16.75 9.8-16.75L9.8-16.75Q6.4-16.75 4.25-18.75 2.1-20.75 2.1-23.9L2.1-23.9Q2.1-26.8 3.65-29.13 5.2-31.45 7.35-32.9 9.5-34.35 12.3-35.5L12.3-35.5Q17.05-37.4 22.28-38.18 27.5-38.95 32.02-38.95 36.55-38.95 40.4-38.15L40.4-38.15Q42.2-39.55 43.55-40.05 44.9-40.55 45.08-40.55 45.25-40.55 45.3-40.5L45.3-40.5Q45.6-40.5 45.43-40.18 45.25-39.85 44.28-39.2 43.3-38.55 42.4-37.65L42.4-37.65Q45.6-36.8 48.2-35.25ZM28.4-13.5L28.4-13.5Q32.05-13.5 36.33-14.78 40.6-16.05 43.9-18.5L43.9-18.5Q50.3-23.35 50.3-28.5L50.3-28.5Q50.3-34.35 41.45-36.45L41.45-36.45Q38.65-32.55 34.2-24.6 29.75-16.65 27.7-13.5L27.7-13.5Q28.05-13.5 28.4-13.5ZM41.4 17.4L41.4 17.4Q38.65 17.4 38.65 14.65L38.65 14.65Q38.65 10.7 43.8-1.45L43.8-1.45Q43.2-2.45 43.2-3.1L43.2-3.1Q43.2-5.2 44.15-5.9L44.15-5.9Q44.85-6.5 45.32-6.5 45.8-6.5 45.95-6.45L45.95-6.45Q51.65-19.3 56.2-27.8L56.2-27.8Q57.1-29.6 58.05-30.45 59-31.3 60.45-31.3L60.45-31.3Q60.65-31.3 61.45-31.15 62.25-31 62.65-31.05L62.65-31.05Q60.3-28.85 56.05-21.35 51.8-13.85 48-5.3L48-5.3Q49.15-3.9 49.6-1.55L49.6-1.55 49.75-0.9Q49.85-0.9 49.9-0.9L49.9-0.9Q51.25-0.9 52.75-2.48 54.25-4.05 55.2-5.73 56.15-7.4 56.75-8.68 57.35-9.95 57.5-10.05 57.65-10.15 57.77-10.13 57.9-10.1 58-10.03 58.1-9.95 58.1-9.78 58.1-9.6 58-9.4L58-9.4Q53.85 0.05 49.85 0.05L49.85 0.05Q49.9 0.85 49.9 2.68 49.9 4.5 49 8.1 48.1 11.7 45.97 14.55 43.85 17.4 41.4 17.4ZM41.35 14.65L41.35 14.65Q41.35 16.1 42.15 16.1L42.15 16.1Q43.1 16.1 44.77 13.88 46.45 11.65 47.62 7.78 48.8 3.9 48.8 0.75L48.8 0.75Q48.8 0.5 48.8 0.25L48.8 0.25Q48.55 0.25 48.35 0.25L48.35 0.25Q46.9 0.25 45.9-0.55L45.9-0.55Q41.35 10.95 41.35 14.65ZM48.4-0.7L48.4-0.7 48.7-0.7Q48.55-2.85 47.5-4.15L47.5-4.15 46.4-1.65Q46.9-0.7 48.4-0.7Z" opacity="1" transform="matrix(1,0,0,1,0,0)" fill="#ffffff" class="undefined-text-0" data-fill-palette-color="quaternary" id="text-0"></path></svg></g></svg></g></svg></g></svg></g><g></g></svg></g></svg></g></svg></g></svg></g><defs></defs></svg><rect width="340.35333372274647" height="340.35333372274647" fill="none" stroke="none" visibility="hidden"></rect></g></svg></g></svg>